<svg width="50" height="50" viewBox="0 0 50 50" fill="none" xmlns="http://www.w3.org/2000/svg">
<path d="M20.2 32.2C20.2 32.2 15.8118 32.2 13 32.2ZM1 25C1 38.2552 11.7448 49 25 49C38.2552 49 49 38.2552 49 25C49 11.7448 38.2552 1 25 1C11.7448 1 1 11.7448 1 25Z" fill="#3795B3"/>
<path d="M20.2 32.2C20.2 32.2 15.8118 32.2 13 32.2M1 25C1 38.2552 11.7448 49 25 49C38.2552 49 49 38.2552 49 25C49 11.7448 38.2552 1 25 1C11.7448 1 1 11.7448 1 25Z" stroke="#3795B3" stroke-width="1.5" stroke-linecap="round" stroke-linejoin="round"/>
<path d="M14.7322 21.5355C15.2011 22.4732 15.837 23 16.5 23C17.163 23 17.7989 22.4732 18.2678 21.5355C18.7366 20.5979 19 19.3261 19 18C19 16.6739 18.7366 15.4021 18.2678 14.4645C17.7989 13.5268 17.163 13 16.5 13C15.837 13 15.2011 13.5268 14.7322 14.4645C14.2634 15.4021 14 16.6739 14 18C14 19.3261 14.2634 20.5979 14.7322 21.5355Z" fill="#0E4E46" stroke="#0E4E46" stroke-width="1.5" stroke-linecap="round" stroke-linejoin="round"/>
<path d="M33.5 21C32.837 21 32.2011 20.6839 31.7322 20.1213C31.2634 19.5587 31 18.7956 31 18C31 17.2044 31.2634 16.4413 31.7322 15.8787C32.2011 15.3161 32.837 15 33.5 15C34.163 15 34.7989 15.3161 35.2678 15.8787C35.7366 16.4413 36 17.2044 36 18C36 18.7956 35.7366 19.5587 35.2678 20.1213C34.7989 20.6839 34.163 21 33.5 21Z" fill="#0E4E46" stroke="#0E4E46" stroke-width="1.5" stroke-linecap="round" stroke-linejoin="round"/>
<path d="M20 32.1488C20 32.2312 20.0081 32.3105 20.028 32.3904C20.2312 33.2074 21.5696 38 25 38C28.4304 38 29.7688 33.2074 29.972 32.3904C29.9919 32.3105 30 32.2312 30 32.1488V32.1488C30 31.5143 29.4857 31 28.8512 31H21.1488C20.5143 31 20 31.5143 20 32.1488V32.1488Z" fill="#0E4E46"/>
</svg>
