<svg width="100" height="67" viewBox="0 0 100 67" fill="none" xmlns="http://www.w3.org/2000/svg">
<path d="M22.5674 2.02149C31.4503 -1.13629 40.2027 3.77581 43.4685 6.62659C43.9039 7.06517 46.7342 7.94234 49.3468 7.94234H50.6532C53.2658 7.94234 56.0961 7.06517 56.5315 6.62659C59.7973 3.77581 68.5497 -1.13629 77.4326 2.02149C88.5363 5.96872 103.559 25.047 97.6805 57.9406C96.8097 62.3264 92.7166 69.6507 83.3111 63.8614C82.0048 62.9842 78.0858 59.7826 72.8606 53.9933C67.6353 48.2041 66.329 48.7304 65.6758 48.7304H34.3242C33.671 48.7304 32.3647 48.2041 27.1394 53.9933C21.9142 59.7826 17.9952 62.9842 16.6889 63.8614C7.2834 69.6507 3.19031 62.3264 2.31945 57.9406C-3.55898 25.047 11.4637 5.96872 22.5674 2.02149Z" fill="#B33771" stroke="#B33771"/>
<path d="M74.1669 16.7889C74.1669 19.6955 71.8274 22.0518 68.9416 22.0518C66.0557 22.0518 63.7163 19.6955 63.7163 16.7889C63.7163 13.8822 66.0557 11.5259 68.9416 11.5259C71.8274 11.5259 74.1669 13.8822 74.1669 16.7889Z" fill="#62216D"/>
<path d="M87.23 24.6833C87.23 27.59 84.8906 29.9463 82.0048 29.9463C79.1189 29.9463 76.7795 27.59 76.7795 24.6833C76.7795 21.7766 79.1189 19.4203 82.0048 19.4203C84.8906 19.4203 87.23 21.7766 87.23 24.6833Z" fill="#62216D"/>
<path d="M74.1669 31.262C74.1669 34.1687 71.8274 36.525 68.9416 36.525C66.0557 36.525 63.7163 34.1687 63.7163 31.262C63.7163 28.3554 66.0557 25.9991 68.9416 25.9991C71.8274 25.9991 74.1669 28.3554 74.1669 31.262Z" fill="#62216D"/>
<path d="M24.527 15.4729C27.4297 14.3336 29.2318 14.4416 32.3649 15.4729V36.5248C29.3608 37.5028 27.6425 37.4653 24.527 36.5248V15.4729Z" fill="#6D214F"/>
<path d="M38.3044 22.0043C39.4355 24.9279 39.3283 26.743 38.3044 29.8987L17.4033 29.8987C16.4323 26.8729 16.4696 25.1423 17.4033 22.0042L38.3044 22.0043Z" fill="#6D214F"/>
</svg>
