<svg width="100" height="118" viewBox="0 0 100 118" fill="none" xmlns="http://www.w3.org/2000/svg">
<path d="M50.3908 117.392C48.7881 118.625 44.7642 117.78 41.3383 116.656C38.7577 115.809 36.6316 114.01 35.061 111.794L31.7146 107.072C31.0172 105.999 30.6372 104.057 30.4461 102.284C30.2369 100.343 30.4451 98.2045 31.852 96.8498C32.5451 96.1824 33.2945 95.8781 34.0348 95.8218C37.2079 95.5803 38.0291 99.7963 39.178 102.764C40.408 105.941 42.9086 109.029 47.1907 109.029C55.4513 109.029 53.264 115.18 50.3908 117.392Z" fill="#D6A2E8"/>
<path d="M6.94454 62.5986L64.4239 2.89397C65.9045 1.35601 68.3972 1.46065 69.7437 3.1173C70.8633 4.49475 70.7953 6.48694 69.5844 7.78482L9.56838 72.1111C7.03722 75.3314 3.63165 84.6012 10.2587 95.9181C18.5425 110.064 34.4198 108.339 33.0392 106.269C32.4037 105.316 32.0424 103.632 31.8502 102.046C31.6097 100.06 31.7957 97.8133 33.3181 96.5164C33.6496 96.2341 33.9879 96.0483 34.3264 95.9414C37.4221 94.9635 38.3184 99.8406 39.4382 102.888C40.4758 105.711 42.5811 108.339 46.5004 108.339C54.439 108.339 53.7487 113.86 50.9874 115.93C49.3118 117.186 44.8824 116.139 41.435 114.958C39.5139 114.3 37.5146 113.86 35.4839 113.86H30.0268C29.2749 113.86 28.4995 113.803 27.7582 113.677C-5.87472 107.974 -2.27286 80.8458 4.47223 66.1364C5.07725 64.817 5.93786 63.6443 6.94454 62.5986Z" fill="#6B216D"/>
<path d="M44.4516 85.3358L44.9194 83.6308C46.0434 79.534 48.8517 76.106 52.6472 74.1978L53.8894 73.5732L55.2991 74.2439C59.2382 76.1179 62.1663 79.6138 63.3204 83.8205L63.7361 85.3358C64.1631 86.8919 64.3366 88.5779 63.5924 90.0082C62.6876 91.7471 61.0091 93.3623 58.2608 92.7702C57.4041 92.5287 55.3303 92.0457 53.8894 92.0457C52.4485 92.0457 50.6474 92.5287 49.927 92.7702C47.1787 93.3623 45.5002 91.7471 44.5954 90.0082C43.8512 88.5779 44.0247 86.8919 44.4516 85.3358Z" fill="#6B216D"/>
<path d="M7.49744 67.7836V49C7.49744 42.3726 12.87 37 19.4974 37H40.9328C43.1546 37 45.316 37.652 47.3116 38.6287C49.3827 39.6424 51.842 40.6083 53.5394 40.6083H53.958C55.6554 40.6083 58.1148 39.6424 60.1858 38.6287C62.1814 37.652 64.3428 37 66.5646 37H88C94.6274 37 100 42.3726 100 49V67.7836C100 74.411 94.6274 79.7836 88 79.7836H67.1998C64.5828 79.7836 62.0696 78.8655 59.7745 77.6081C57.8833 76.5719 55.6938 75.6599 53.958 75.6599H53.5394C51.8036 75.6599 49.6142 76.5719 47.723 77.6081C45.4278 78.8655 42.9146 79.7836 40.2976 79.7836H19.4974C12.87 79.7836 7.49744 74.411 7.49744 67.7836Z" fill="#B33771"/>
<path d="M15.0909 68.8831V47.9006C15.0909 45.6915 16.8818 43.9006 19.0909 43.9006H44.9345C45.5545 43.9006 46.1635 44.0478 46.7275 44.3051C48.6003 45.1594 51.664 46.3449 53.5738 46.3449H53.9236C55.8334 46.3449 58.8971 45.1594 60.7699 44.3051C61.3339 44.0478 61.9429 43.9006 62.5629 43.9006H88.4065C90.6156 43.9006 92.4065 45.6915 92.4065 47.9006V68.8831C92.4065 71.0922 90.6156 72.8831 88.4065 72.8831H62.7506C62.0115 72.8831 61.2909 72.6729 60.6407 72.3214C58.8532 71.3552 56.0001 70.0896 53.9236 70.0896H53.5738C51.4973 70.0896 48.6442 71.3552 46.8567 72.3214C46.2065 72.6729 45.486 72.8831 44.7469 72.8831H19.0909C16.8818 72.8831 15.0909 71.0922 15.0909 68.8831Z" fill="#D6A2E8"/>
<g clip-path="url(#clip0_65_120)">
<rect x="27.5971" y="37.9939" width="13" height="51.6883" transform="rotate(17.7347 27.5971 37.9939)" fill="white"/>
<rect x="45.5971" y="37.9939" width="4.03723" height="51.6883" transform="rotate(17.7347 45.5971 37.9939)" fill="white"/>
</g>
<defs>
<clipPath id="clip0_65_120">
<rect width="29" height="28" fill="white" transform="translate(18 44.5264)"/>
</clipPath>
</defs>
</svg>
