<svg width="154" height="139" viewBox="0 0 154 139" fill="none" xmlns="http://www.w3.org/2000/svg">
<path d="M153.947 112.834C154.531 111.257 87.4998 60.6429 87.4998 60.6429C79.108 54.4501 74.6944 54.3526 66.3958 60.6429C66.3958 60.6429 -0.537621 111.216 0.0257422 112.772L0.012207 112.783C0.019125 112.797 0.0302539 112.806 0.0395781 112.818C0.607133 114.365 1.43284 115.805 2.48162 117.076C2.92467 117.614 3.45856 118.064 3.97199 118.531L3.94703 118.55C3.98793 118.587 4.04238 118.604 4.08328 118.64C6.25943 120.581 9.00376 121.839 12.0525 122.197C12.1003 122.203 12.1388 122.228 12.1866 122.234H12.3707C12.8342 122.278 13.2749 122.389 13.7495 122.389H140.294C146.526 122.389 151.805 118.471 153.902 112.978C153.927 112.937 153.966 112.907 153.988 112.865L153.947 112.834Z" fill="#35215D"/>
<path d="M77 54.9999L0 112V31.25C0 23.3792 6.46316 17 14.4375 17H139.562C147.537 17 154 23.3792 154 31.25V112L77 54.9999Z" fill="#4B2F84"/>
<path d="M1.25977 25.8749L66.7233 77.2932C74.9858 83.3903 79.3315 83.4866 87.5022 77.2932L152.863 25.9565C151.729 23.9009 150.031 22.277 148.09 20.9821L148.989 20.2777C146.795 18.2802 143.99 16.9853 140.876 16.6509L13.2083 16.6554C10.1036 16.9853 7.29434 18.2847 5.10465 20.2777L5.99707 20.9734C4.07809 22.2502 2.39612 23.8462 1.25977 25.8749Z" fill="#EDECE6"/>
<path d="M1.04041 25.4939C0.464113 27.0615 66.6351 77.349 66.6351 77.349C74.9192 83.5017 79.2762 83.5988 87.4683 77.349C87.4683 77.349 153.543 27.1022 152.986 25.5561L153 25.5448C152.993 25.5312 152.982 25.5224 152.973 25.5099C152.413 23.9727 151.598 22.5422 150.562 21.2792C150.125 20.7453 149.598 20.2985 149.091 19.8335L149.116 19.8144C149.076 19.7782 149.022 19.7612 148.982 19.7251C146.833 17.7965 144.124 16.5472 141.115 16.1906C141.068 16.1848 141.03 16.1603 140.982 16.1545H140.801C140.343 16.1105 139.908 16 139.44 16H14.5181C8.36671 16 3.15501 19.8936 1.08534 25.3512C1.06062 25.3919 1.02262 25.4213 1 25.4629L1.04041 25.4939Z" fill="#6B43BC"/>
</svg>
