<svg width="154" height="139" viewBox="0 0 154 139" fill="none" xmlns="http://www.w3.org/2000/svg">
<rect x="35" y="32" width="83" height="76" fill="#D6A2E8"/>
<path d="M94.6 70C94.6 73.4809 93.5678 76.8837 91.6339 79.778C89.7 82.6723 86.9512 84.9282 83.7352 86.2603C80.5192 87.5924 76.9805 87.9409 73.5664 87.2618C70.1523 86.5827 67.0163 84.9065 64.5549 82.4451C62.0935 79.9837 60.4173 76.8477 59.7382 73.4336C59.0591 70.0195 59.4076 66.4808 60.7397 63.2648C62.0718 60.0488 64.3277 57.3001 67.222 55.3661C70.1163 53.4322 73.5191 52.4 77 52.4C81.6633 52.4145 86.1316 54.2734 89.4291 57.5709C92.7266 60.8684 94.5855 65.3367 94.6 70ZM132 45.8V94.2C132 102.369 128.755 110.203 122.979 115.979C117.203 121.755 109.369 125 101.2 125H52.8C44.6313 125 36.7972 121.755 31.0211 115.979C25.245 110.203 22 102.369 22 94.2V45.8C22 37.6313 25.245 29.7972 31.0211 24.0211C36.7972 18.245 44.6313 15 52.8 15H101.2C109.369 15 117.203 18.245 122.979 24.0211C128.755 29.7972 132 37.6313 132 45.8ZM103.4 70C103.4 64.7786 101.852 59.6744 98.9508 55.3329C96.0499 50.9915 91.9268 47.6077 87.1028 45.6096C82.2789 43.6114 76.9707 43.0886 71.8496 44.1073C66.7285 45.1259 62.0245 47.6403 58.3324 51.3324C54.6403 55.0245 52.1259 59.7285 51.1073 64.8496C50.0886 69.9707 50.6114 75.2789 52.6096 80.1028C54.6077 84.9268 57.9915 89.0499 62.3329 91.9508C66.6744 94.8517 71.7786 96.4 77 96.4C84.0017 96.4 90.7167 93.6186 95.6676 88.6676C100.619 83.7167 103.4 77.0017 103.4 70ZM112.2 41.4C112.2 40.0946 111.813 38.8186 111.088 37.7332C110.362 36.6479 109.332 35.8019 108.126 35.3024C106.92 34.8029 105.593 34.6722 104.312 34.9268C103.032 35.1815 101.856 35.8101 100.933 36.7331C100.01 37.6561 99.3815 38.8321 99.1268 40.1124C98.8722 41.3927 99.0029 42.7197 99.5024 43.9257C100.002 45.1317 100.848 46.1625 101.933 46.8877C103.019 47.6129 104.295 48 105.6 48C107.35 48 109.029 47.3046 110.267 46.0669C111.505 44.8292 112.2 43.1504 112.2 41.4Z" fill="#591B6E"/>
</svg>
