<svg width="18" height="19" viewBox="0 0 18 19" fill="none" xmlns="http://www.w3.org/2000/svg">
<path d="M0.25 18V0.867188H3.0625V18H0.25ZM17.4766 13.3359C17.4766 14.3516 17.2266 15.2266 16.7266 15.9609C16.2344 16.6953 15.5234 17.2578 14.5938 17.6484C13.6719 18.0391 12.5703 18.2344 11.2891 18.2344C10.6641 18.2344 10.0664 18.1992 9.49609 18.1289C8.92578 18.0586 8.38672 17.957 7.87891 17.8242C7.37891 17.6836 6.92188 17.5156 6.50781 17.3203V14.6719C7.20312 14.9766 7.98047 15.2539 8.83984 15.5039C9.69922 15.7461 10.5742 15.8672 11.4648 15.8672C12.1914 15.8672 12.793 15.7734 13.2695 15.5859C13.7539 15.3906 14.1133 15.1172 14.3477 14.7656C14.582 14.4062 14.6992 13.9883 14.6992 13.5117C14.6992 13.0039 14.5625 12.5742 14.2891 12.2227C14.0156 11.8711 13.6016 11.5508 13.0469 11.2617C12.5 10.9648 11.8125 10.6484 10.9844 10.3125C10.4219 10.0859 9.88281 9.82812 9.36719 9.53906C8.85938 9.25 8.40625 8.91016 8.00781 8.51953C7.60938 8.12891 7.29297 7.66797 7.05859 7.13672C6.83203 6.59766 6.71875 5.96484 6.71875 5.23828C6.71875 4.26953 6.94922 3.44141 7.41016 2.75391C7.87891 2.06641 8.53516 1.53906 9.37891 1.17188C10.2305 0.804688 11.2227 0.621094 12.3555 0.621094C13.2539 0.621094 14.0977 0.714844 14.8867 0.902344C15.6836 1.08984 16.4648 1.35547 17.2305 1.69922L16.3398 3.96094C15.6367 3.67188 14.9531 3.44141 14.2891 3.26953C13.6328 3.09766 12.9609 3.01172 12.2734 3.01172C11.6797 3.01172 11.1758 3.10156 10.7617 3.28125C10.3477 3.46094 10.0312 3.71484 9.8125 4.04297C9.60156 4.36328 9.49609 4.74609 9.49609 5.19141C9.49609 5.69141 9.61719 6.11328 9.85938 6.45703C10.1094 6.79297 10.4922 7.10156 11.0078 7.38281C11.5312 7.66406 12.2031 7.97656 13.0234 8.32031C13.9688 8.71094 14.7695 9.12109 15.4258 9.55078C16.0898 9.98047 16.5977 10.4961 16.9492 11.0977C17.3008 11.6914 17.4766 12.4375 17.4766 13.3359Z" fill="white"/>
</svg>
