<svg width="154" height="139" viewBox="0 0 154 139" fill="none" xmlns="http://www.w3.org/2000/svg">
<g clip-path="url(#clip0_112_477)">
<rect x="30" y="24" width="93" height="91" fill="#527AE0"/>
<path d="M114.873 107.874H98.7223V82.5815C98.7223 76.5503 98.6146 68.7862 90.3225 68.7862C81.9108 68.7862 80.6236 75.3577 80.6236 82.1425V107.872H64.4737V55.8607H79.9777V62.9687H80.1949C81.7465 60.3157 83.9886 58.1332 86.6824 56.6536C89.3763 55.174 92.421 54.4528 95.4923 54.5668C111.862 54.5668 114.879 65.3339 114.879 79.3413L114.873 107.874ZM46.2503 48.7515C41.0741 48.7523 36.8772 44.5567 36.8763 39.3804C36.8755 34.2042 41.0707 30.0073 46.2469 30.0064C51.4231 30.0052 55.62 34.2008 55.6209 39.377C55.6214 41.8628 54.6344 44.2469 52.8771 46.0049C51.1197 47.7629 48.736 48.7509 46.2503 48.7515ZM54.3257 107.875H38.1583V55.8607H54.3252V107.874L54.3257 107.875ZM122.924 15.0074H30.0429C25.6531 14.9581 22.0532 18.4746 21.9995 22.8644V116.133C22.0515 120.525 25.651 124.045 30.0425 123.999H122.924C127.325 124.053 130.939 120.533 131 116.133V22.8571C130.937 18.4588 127.323 14.9427 122.924 15.0002" fill="#0E204E"/>
</g>
<defs>
<clipPath id="clip0_112_477">
<rect width="109" height="109" fill="white" transform="translate(22 15)"/>
</clipPath>
</defs>
</svg>
