<svg width="154" height="139" viewBox="0 0 154 139" fill="none" xmlns="http://www.w3.org/2000/svg">
<g clip-path="url(#clip0_112_442)">
<path d="M127.676 23.2576C118.101 18.876 107.971 15.7627 97.5552 14C96.2577 16.2942 94.7418 19.3799 93.6964 21.8347C82.4658 20.1831 71.3385 20.1831 60.3143 21.8347C59.2695 19.3804 57.7194 16.2942 56.41 14C45.9835 15.7635 35.8454 18.8848 26.2661 23.2805C7.20398 51.4539 2.03637 78.9266 4.61989 106.011C17.2631 115.245 29.5157 120.855 41.5619 124.525C44.5557 120.499 47.2021 116.236 49.4738 111.78C45.1487 110.17 40.9792 108.185 37.0148 105.85C38.0581 105.094 39.0768 104.306 40.0694 103.487C64.0921 114.476 90.1941 114.476 113.931 103.487C114.928 104.3 115.946 105.088 116.985 105.85C113.014 108.191 108.836 110.18 104.503 111.792C106.787 116.266 109.429 120.533 112.415 124.536C124.472 120.866 136.736 115.257 149.379 106.011C152.411 74.6138 144.201 47.3931 127.676 23.2576ZM52.7469 89.3545C45.5353 89.3545 39.6211 82.7698 39.6211 74.7516C39.6211 66.7334 45.4092 60.1375 52.7469 60.1375C60.0851 60.1375 65.9986 66.7217 65.8726 74.7516C65.884 82.7698 60.0851 89.3545 52.7469 89.3545ZM101.253 89.3545C94.0409 89.3545 88.1273 82.7698 88.1273 74.7516C88.1273 66.7334 93.9149 60.1375 101.253 60.1375C108.591 60.1375 114.504 66.7217 114.378 74.7516C114.378 82.7698 108.591 89.3545 101.253 89.3545Z" fill="#6D214F"/>
<path d="M52.7469 89.3545C45.5353 89.3545 39.6211 82.7698 39.6211 74.7516C39.6211 66.7334 45.4092 60.1375 52.7469 60.1375C60.0851 60.1375 65.9986 66.7217 65.8726 74.7516C65.884 82.7698 60.0851 89.3545 52.7469 89.3545Z" fill="#3B122B"/>
<path d="M101.253 89.3545C94.0409 89.3545 88.1273 82.7698 88.1273 74.7516C88.1273 66.7334 93.9149 60.1375 101.253 60.1375C108.591 60.1375 114.504 66.7217 114.378 74.7516C114.378 82.7698 108.591 89.3545 101.253 89.3545Z" fill="#3B122B"/>
</g>
<defs>
<clipPath id="clip0_112_442">
<rect width="146" height="111" fill="white" transform="translate(4 14)"/>
</clipPath>
</defs>
</svg>
