<svg width="97" height="74" viewBox="0 0 97 74" fill="none" xmlns="http://www.w3.org/2000/svg">
<path d="M47.6672 20.1243C30.8974 20.1243 14.5758 37.2234 8.51123 45.7729C14.5758 54.8486 30.8974 73 47.6672 73C64.437 73 81.0223 54.8486 87.2187 45.7729C81.0223 37.2234 64.437 20.1243 47.6672 20.1243Z" fill="#D98282" stroke="#D98282" stroke-width="2" stroke-linejoin="round"/>
<path fill-rule="evenodd" clip-rule="evenodd" d="M48.4581 63.1352C57.6324 63.1352 65.0697 55.7153 65.0697 46.5622C65.0697 37.4092 57.6324 29.9893 48.4581 29.9893C45.5696 29.9893 42.8533 30.7248 40.4871 32.0183C43.7447 33.1386 46.0849 36.2238 46.0849 39.8544C46.0849 44.4309 42.3663 48.1409 37.7791 48.1409C35.467 48.1409 33.3755 47.1983 31.8697 45.6773C31.8543 45.9704 31.8464 46.2654 31.8464 46.5622C31.8464 55.7153 39.2837 63.1352 48.4581 63.1352Z" fill="#6D2121"/>
<path d="M0.275494 25.7811C-0.0363069 25.5383 -0.0917126 25.0892 0.151743 24.778C0.395198 24.4667 0.845322 24.4112 1.15712 24.654L11.8906 33.0104C12.2024 33.2532 12.2578 33.7023 12.0143 34.0136C11.7709 34.3248 11.3207 34.3803 11.0089 34.1376L0.275494 25.7811Z" fill="#BC3939"/>
<path d="M96.1464 25.7811C96.4582 25.5383 96.5136 25.0892 96.2701 24.778C96.0267 24.4667 95.5765 24.4112 95.2647 24.654L84.5313 33.0104C84.2195 33.2532 84.1641 33.7023 84.4075 34.0136C84.651 34.3248 85.1011 34.3803 85.4129 34.1376L96.1464 25.7811Z" fill="#BC3939"/>
<path d="M18.7609 6.94853C18.561 6.56032 18.714 6.08415 19.1025 5.88498C19.4911 5.68581 19.9682 5.83906 20.1681 6.22728L27.035 19.5629C27.2349 19.9511 27.0819 20.4273 26.6933 20.6265C26.3048 20.8256 25.8277 20.6724 25.6278 20.2842L18.7609 6.94853Z" fill="#BC3939"/>
<path d="M77.661 6.94853C77.8609 6.56032 77.7079 6.08415 77.3193 5.88498C76.9307 5.68581 76.4536 5.83906 76.2537 6.22728L69.3869 19.5629C69.187 19.9511 69.3399 20.4273 69.7285 20.6265C70.1171 20.8256 70.5942 20.6724 70.7941 20.2842L77.661 6.94853Z" fill="#BC3939"/>
<path d="M47.6671 0.791029C47.6671 0.354156 48.0213 0 48.4582 0C48.895 0 49.2492 0.354156 49.2492 0.791029V15.782C49.2492 16.2188 48.895 16.573 48.4582 16.573C48.0213 16.573 47.6671 16.2188 47.6671 15.782V0.791029Z" fill="#BC3939"/>
</svg>
