<svg width="103" height="56" viewBox="0 0 103 56" fill="none" xmlns="http://www.w3.org/2000/svg">
<g clip-path="url(#clip0_172_671)">
<path d="M74.427 42.7377L51.1348 54.3838C50.7619 54.5709 50.3493 54.6653 49.9321 54.6589C49.5149 54.6525 49.1054 54.5455 48.7383 54.3471L2.43217 29.2607C2.01506 29.0346 1.66796 28.6984 1.42863 28.2888C1.1893 27.8791 1.06691 27.4117 1.07479 26.9373C1.08267 26.4629 1.22052 25.9998 1.47332 25.5983C1.72612 25.1969 2.0842 24.8724 2.50859 24.6603L48.8667 1.4843C49.1994 1.31774 49.5641 1.22471 49.9359 1.21153C50.3077 1.19834 50.678 1.26531 51.0217 1.40788L74.268 11.0946C74.741 11.2911 75.1453 11.6233 75.4298 12.0492C75.7143 12.4752 75.8663 12.9758 75.8667 13.488L75.8636 40.4146C75.8639 40.8971 75.7297 41.3702 75.4759 41.7806C75.2221 42.191 74.8588 42.5225 74.427 42.7377ZM2.37409 26.8917L21.827 26.8917L41.2799 26.8917" fill="#D6A2E8"/>
<path d="M2.37409 26.8917L21.827 26.8917L41.2799 26.8917M74.427 42.7377L51.1348 54.3838C50.7619 54.5709 50.3493 54.6653 49.9321 54.6589C49.5149 54.6525 49.1054 54.5455 48.7383 54.3471L2.43217 29.2607C2.01506 29.0346 1.66796 28.6984 1.42863 28.2888C1.1893 27.8791 1.06691 27.4117 1.07479 26.9373C1.08267 26.4629 1.22052 25.9998 1.47332 25.5983C1.72612 25.1969 2.0842 24.8724 2.50859 24.6603L48.8667 1.4843C49.1994 1.31774 49.5641 1.22471 49.9359 1.21153C50.3077 1.19834 50.678 1.26531 51.0217 1.40788L74.268 11.0946C74.741 11.2911 75.1453 11.6233 75.4298 12.0492C75.7143 12.4752 75.8663 12.9758 75.8667 13.488L75.8636 40.4146C75.8639 40.8971 75.7297 41.3702 75.4759 41.7806C75.2221 42.191 74.8588 42.5225 74.427 42.7377Z" stroke="#D6A2E8" stroke-width="1.5" stroke-linecap="round" stroke-linejoin="round"/>
<path d="M75.8901 42.3568L93.1554 42.0193C95.4479 42.019 97.6464 41.1081 99.2675 39.487C100.889 37.866 101.799 35.6674 101.8 33.3749L101.806 20.4083C101.806 19.2727 101.583 18.1481 101.148 17.0988C100.714 16.0496 100.077 15.0962 99.2736 14.2932C98.4706 13.4901 97.5172 12.8532 96.468 12.4187C95.4187 11.9842 94.2941 11.7607 93.1584 11.7609L76.7355 11.9847M54.2495 26.8886C54.2493 26.037 54.0814 25.1937 53.7553 24.407C53.4292 23.6203 52.9514 22.9056 52.3491 22.3036C51.7468 21.7015 51.0318 21.224 50.2449 20.8983C49.4581 20.5726 48.6148 20.4051 47.7632 20.4053C46.9116 20.4055 46.0684 20.5734 45.2817 20.8995C44.495 21.2256 43.7802 21.7034 43.1782 22.3057C42.5761 22.908 42.0986 23.623 41.7729 24.4099C41.4472 25.1967 41.2797 26.04 41.2799 26.8916C41.2803 28.6115 41.9639 30.2608 43.1803 31.4766C44.3968 32.6925 46.0464 33.3753 47.7662 33.3749C49.4861 33.3745 51.1354 32.6909 52.3512 31.4745C53.5671 30.258 54.2499 28.6085 54.2495 26.8886Z" fill="#0E204E" stroke="#0E204E" stroke-width="1.5" stroke-linecap="round" stroke-linejoin="round"/>
<path d="M41.6154 28.3747L0.642822 27.2036L41.6154 26.0326L41.6154 28.3747Z" fill="#0E204E"/>
<path d="M0.642822 27.2036L0.628537 26.7038C0.358068 26.7115 0.142822 26.933 0.142822 27.2036C0.142822 27.4742 0.358068 27.6957 0.628537 27.7034L0.642822 27.2036ZM41.6154 28.3747L41.6011 28.8745L42.1154 28.8892L42.1154 28.3747L41.6154 28.3747ZM41.6154 26.0326L42.1154 26.0326L42.1154 25.5181L41.6011 25.5328L41.6154 26.0326ZM0.628537 27.7034L41.6011 28.8745L41.6297 27.8749L0.657107 26.7038L0.628537 27.7034ZM42.1154 28.3747L42.1154 26.0326L41.1154 26.0326L41.1154 28.3747L42.1154 28.3747ZM41.6011 25.5328L0.628537 26.7038L0.657107 27.7034L41.6297 26.5323L41.6011 25.5328Z" fill="#0E204E"/>
</g>
<defs>
<clipPath id="clip0_172_671">
<rect width="103" height="56" fill="white"/>
</clipPath>
</defs>
</svg>
